<?xml version="1.0" encoding="UTF-8"?>
<svg id="Capa_1" data-name="Capa 1" xmlns="http://www.w3.org/2000/svg" viewBox="0 0 100 100">
  <defs>
    <style>
      .cls-1 {
        fill: #fff;
      }
    </style>
  </defs>
  <path class="cls-1" d="M82.61,74.07H17.39c-3.25,0-6.18,1.32-8.3,3.45-2.13,2.11-3.45,5.05-3.45,8.3,0,6.49,5.27,11.76,11.74,11.76h65.23c3.25,0,6.18-1.32,8.31-3.45,2.11-2.13,3.43-5.06,3.43-8.31,0-6.48-5.25-11.74-11.74-11.74ZM80.26,91.35c-2.09,0-3.89-1.16-4.82-2.86H24.58c-.93,1.7-2.75,2.86-4.84,2.86-3.06,0-5.54-2.48-5.54-5.54s2.48-5.52,5.54-5.52c2.09,0,3.91,1.14,4.84,2.84h50.86c.93-1.7,2.73-2.84,4.82-2.84,3.06,0,5.54,2.46,5.54,5.52s-2.48,5.54-5.54,5.54Z"/>
  <path class="cls-1" d="M63.48,9.06h-20.38l-11.41,10.36v49.59h19.56v-23.49h-4.98v-18.84h2.65v-10.16h11.46v10.16h2.64v18.84h-4.97v23.49h19.56V19.42c-2.82-2.3-14.13-10.36-14.13-10.36Z"/>
  <rect class="cls-1" x="18.55" y="2.43" width="5.8" height="66.58"/>
</svg>