<?xml version="1.0" encoding="UTF-8"?>
<svg id="Capa_1" data-name="Capa 1" xmlns="http://www.w3.org/2000/svg" viewBox="0 0 100 100">
  <defs>
    <style>
      .cls-1 {
        fill: #fff;
      }
    </style>
  </defs>
  <path class="cls-1" d="M45.15,87.62l-2.32,2.71c-.62.71-1.45,1.21-2.39,1.36l-33.04,5.82c-2.66.47-5.03-1.75-4.73-4.44l3.35-31.61c.1-1.04.62-2,1.38-2.66l4.83-4.17c3.39.44,12.7,2.11,21.02,9.8,9.67,8.95,11.5,20.05,11.9,23.19Z"/>
  <path class="cls-1" d="M97.13,25.06c0,.96-.35,1.9-.96,2.64l-41.94,49.27c-2.71-9.84-10.45-23.99-32.45-30.55L71.39,3.66c.74-.64,1.68-.99,2.64-.99,1.75-.27,3.87-.37,6.24,0,.54.1,1.06.2,1.55.32.42.27.86.54,1.31.86,5.38,3.65,9.54,8.06,12.8,12.58.3.44.59.89.89,1.33.12.49.22,1.01.32,1.58.34,2.17.25,4.14,0,5.72Z"/>
</svg>