<?xml version="1.0" encoding="UTF-8"?>
<svg id="Capa_1" data-name="Capa 1" xmlns="http://www.w3.org/2000/svg" viewBox="0 0 100 100">
  <defs>
    <style>
      .cls-1 {
        fill: #206988;
      }
    </style>
  </defs>
  <path class="cls-1" d="M52.05,17.63c-1.7-.28-6.31,1.02-5.53-1.68l9.11-12.65c.57-.74,1.53-.8,2.24-.21l9.19,12.56c1.01,3.06-3.06,1.72-5.03,1.98.55,4.1-.74,10.07.01,13.92.26,1.32,2.14,2.02,2.58,2.96,1.45,3.11-2.7,5.29-2.59,7.22.23,3.93,5.8,1.78,7.37,4.18.93,1.42.93,8.41.14,9.9-1.12,2.09-5.8,1.44-6.73,2.51-2.81,3.24,3.83,5.65,1.64,9.37-.24.41-3.87,3.45-3.62,3.7,2.45-.58,6.14,4.04,7.08,4.27.71.18,6.01-2.08,7.71-1.13-1.06-1.48-2.68-2.52-3.52-4.19-.35-.69-1.27-3.27-1.27-3.85v-33.55c-1.41-.34-5.87.98-5.39-1.21,2.9-3.74,5.69-9.07,8.82-12.49.81-.88,1.51-1.88,2.76-.81l9.22,12.93c1.16,2.8-4.89,1.06-5.43,1.58l-.02,21.74c7.15,1.28,10.67,8.43,8.03,14.96l-3.6,4.89c8.21-.69,12.67,4.75,13.2,12.35.11,1.54.22,9.21-.51,9.93-.44.43-1.47.45-2.09.5l-92.3-.05c-1.74-.24-1.7-.95-1.84-2.5-.84-9.74.64-20.98,13.2-20.23l-3.39-4.32c-1.53-3.29-1.46-7.74.52-10.87.52-.82,2.3-2.28,2.38-2.72s-.33-1.53-.33-2.29c.01-1.68-.29-7.4.22-8.46,1.07-2.2,6.8-.28,7.33-3.83.35-2.39-3.88-4.45-2.52-7.54.28-.64,6.14-6.09,6.88-6.23,2.83-.5,5.4,4.69,8.5,2.1.87-.73.6-5.41,2.23-6.44,1.08-.68,8.78-.66,10.05-.13,2.23.93,1.38,5.04,2.46,6.52.22.3,2.83,1.34,2.83.45v-13.15ZM54.45,16.26v13.15c2.03-1.31,3-1.39,5.19-.39v-13.15c0-.99,3.31-.31,3.99-.78l-6.59-9.22-6.99,9.22c1.09.46,3.97-.31,4.39,1.18ZM73.23,30.98v27.08c1.59-1.27,3.24-2.37,5.22-2.99v-23.1c.37-2.03,2.84-1.27,4.37-1.39l-6.99-9.41-6.59,9.22c.63.34,3.69.12,3.99.59ZM45.61,25.93h-7.49c-1.08,3.7-.35,6.45-4.84,7.62-2.54.67-4.49-1.87-6.61-2.89-.78.88-5.46,4.83-5.34,5.55,4.88,5.58,2.99,10.86-4.83,10.88l-.02,7.83c4.12-.44,7.34.38,10.39,3.14-7.13-15.17,11.34-30.3,24.98-20.01,6.75,5.09,5.3,10.58,8.1,17.16.28.66.45,1.36.49,2.07.68-.1.45-.83,1.29-1.28,1.15-.6,5.26-.8,5.72-1.45.32-.44.32-6.67,0-7.11-3.66-1.51-6.8-.15-7.72-4.97-.65-3.42,3.35-5.35,2.52-7.15-.14-.3-4.53-4.62-4.87-4.68-1.53.46-4.11,2.99-5.56,3.09-.72.05-3.75-1.11-4.29-1.54-1.16-.92-1.14-4.84-1.93-6.25ZM55.65,49.42c-.88-12.69-18.61-16.78-25.5-6.01-5.69,8.89-.36,19.59,9.92,21.31-.07-3.27-1.87-2.65-3.88-3.84-14.57-8.67.82-29.24,13.47-18.33,2.98,2.57,2.3,6.14,5.99,6.87ZM50.46,47.85c-8.88-15.8-27.74,4.03-11.19,11.78.13-6.18,4.68-11.58,11.19-11.78ZM49.57,50.28c-8.22.62-10.6,12.47-4.32,17.39,6.71,5.26,13.93-1.76,13.2-9.04-.43-4.25-4.23-8.7-8.88-8.35ZM18.38,57.36c-9.58,1.91-5.5,20.11,4.53,15.04,6.96-3.52,3.87-16.72-4.53-15.04ZM79.12,57.36c-8.3,1.34-7.26,16.36,1.47,15.97,9.23-.41,8.69-17.6-1.47-15.97ZM39.47,71c1.7-.28,4.01.2,5.79,0-.92-.42-3.44-3.71-3.68-3.84-.48-.26-1.66,0-2.42-.18-4.48-1.06-7.52-2.97-10.69-6.18,1.74,5.52.3,9.94-4,13.73,1.7-.95,6.99,1.31,7.71,1.13.6-.15,2.09-2.06,2.95-2.63.63-.42,3.72-1.93,4.33-2.03ZM54.85,71c2.07,1.07,6.72-2.85,7.41-4.33.55-1.19-.95-2.57-1.61-3.52-1.04,3.44-3.1,5.6-5.79,7.84ZM68.44,94.55v-12.36c0-3.14-4.55-7.8-7.67-8.56-3.27-.8-15.48-.57-19.32-.29-4.17.31-9.77,4.62-9.77,8.85v12.36h6.79v-11.58c0-1.16,2.4-.76,2.4,0v11.58h18.38v-11.58c0-.76,2.4-1.16,2.4,0v11.58h6.79ZM4.5,83.36c-.55,3.23.41,7.8,0,11.18h6.39v-10.2c0-.28,2.4-.43,2.4.59v9.61h13.19v-10.01c0-1.04,2.4-.38,2.4.39v9.61h.4v-12.75c0-.78,1.28-2.84,1.23-3.88-.04-.23-1.61-.88-1.92-.94-3.07-.53-13.42-.44-16.69-.09-3.02.32-6.89,3.51-7.39,6.48ZM95.61,94.55v-11.18c0-2.68-4.71-6.19-7.39-6.48-3.27-.35-13.62-.44-16.69.09-.31.05-1.88.7-1.92.94-.05,1.04,1.23,3.1,1.23,3.88v12.75h.4v-9.61c0-.77,2.4-1.43,2.4-.39v10.01h13.19v-9.61c0-1.02,2.4-.87,2.4-.59v10.2h6.39Z"/>
</svg>