<?xml version="1.0" encoding="UTF-8"?>
<svg id="Capa_1" data-name="Capa 1" xmlns="http://www.w3.org/2000/svg" viewBox="0 0 100 100">
  <defs>
    <style>
      .cls-1 {
        fill: #206988;
      }
    </style>
  </defs>
  <path class="cls-1" d="M93.53,13.32c-1.72-2.78,4.44-3.58,4.93-1.25.52,2.46-4.54,1.89-4.93,1.25Z"/>
  <g>
    <path class="cls-1" d="M18.99,68.02c.39-1.77,3.23-2.58,3.46-3.08.73-1.62,2.69-11.11,2.91-13.19.52-4.85-.13-10.09.12-14.98-.26-.3-3.56,2.44-3.9,2.76-.59.55-2.33,2.06-2.5,2.64-.83,4.77.85,11.95-.18,16.41-.84,3.66-6.6,4.62-7.94-.11-.78-2.76-3.02-16.87-2.77-19.32.1-.99.6-1.93,1.09-2.78,1.06-1.85,8.68-11.66,10.19-12.96,2.49-2.15,7.16-2.61,10.35-3.23-.23-1.47-1.37-2.63-1.63-4.14-1.36-7.86,6.36-14.08,13.85-10.63,1.69.78,2.93,2.78,4.44,2.9l38.54-4.75c7.96-.55,7.35,16.93,1.71,17.87-.89.15-2.1.08-3.03.04-4.05-.15-8.7-1.18-12.75-1.72-1.39,3.47-2.33,11.12-4.99,13.61-2.94,2.75-13.81,3.61-17.96,5.11v16.58h5.2v-7.02c0-.85,2.38-3.19,3.25-3.19h14.07v-7.02c0-.73,2.03-2.48,2.91-2.67,1.74-.38,12.3-.32,13.99.11,1.54.39,2.51,1.62,2.92,3.09l.11,54.34c-.25,2.42-2.53,4.09-4.97,4.05l-79.58-.12c-2.79-.5-3.91-2.1-4.22-4.79s-.32-13.06.86-14.9c.26-.4,2.08-1.9,2.39-1.9h14.07c.3-2.05-.41-5.13,0-7.02ZM85.51,6.6c-2.68.45-3.25,11.37.33,12.29,3.26-1.33,2.7-12.8-.33-12.29ZM81.34,7c-11.32,1.44-22.81,2.57-34.02,4.23l.53,3.01,33.5,3.81c-1.36-3.5-1.21-7.56,0-11.05ZM44.58,14.05c0-3.7-3.05-6.7-6.82-6.7s-6.82,3-6.82,6.7,3.05,6.7,6.82,6.7,6.82-3,6.82-6.7ZM61.86,18.91l-14.88-1.73c-.68,1.83-1.82,3.21-3.29,4.49,1.67,1.1,3.55,3.56,5.51,3.95,1.46.29,8.56-.48,9.68-1.36,1.26-.99,2.02-3.98,2.99-5.35ZM15.96,58.24v-16.58c0-.4,1.49-2.33,1.93-2.78,1.27-1.31,6.84-5.96,8.33-6.74.98-.52,1.63-.31,2.23.66-.22,5.76.54,12.08.06,17.78-.39,4.65-2.39,9.59-3.02,14.25h10.82v-7.02c0-.54,2.26-2.76,2.81-2.76h6.28c-.57-3.97-.71-8.9-.45-12.99.05-.88.46-4.89.66-5.3.92-1.86,15.31-3.36,17.97-5.32,2.05-1.51,3.47-9.47,4.34-12.11-4.41-1.06-4.22,3.67-6.38,6.27-.98,1.18-1.97,1.75-3.46,2.13-1.58.4-6.51.96-8.13.96-4.12,0-6.73-4.8-8.85-5.35-.87-.23-3.39.42-4.96.21-1.39-.19-2.65-1.25-3.88-1.21-1.11.03-9.29,2.19-10.21,2.76-3.1,1.92-7.54,10.6-10.61,13.39-.23,6.49,1.74,13.16,2.46,19.66.17,1.05,1.83.92,2.07.09ZM87.4,38.04h-13.86v55.7h13.86v-55.7ZM70.52,47.82h-14.29v45.92h14.29v-45.92ZM53.2,58.03h-14.29v35.72h14.29v-35.72ZM36.31,67.81h-14.29v25.94h14.29v-25.94ZM18.99,78.01H5.14c-.33,4.01-1,9.89-.45,13.84.08.56.55,1.89,1.1,1.89h13.21v-15.73Z"/>
    <path class="cls-1" d="M96.8,3.26c1.18-.02,1.83,1.54,1.23,2.48-.41.64-3.42,1.59-4.15,1.08-1.59-1.7,1.4-3.53,2.92-3.56Z"/>
  </g>
  <path class="cls-1" d="M94.18,17.68c1.5-.49,5.03,1.04,3.84,2.94-1.37,2.19-6.83-1.97-3.84-2.94Z"/>
</svg>