<?xml version="1.0" encoding="UTF-8"?>
<svg id="Capa_1" data-name="Capa 1" xmlns="http://www.w3.org/2000/svg" viewBox="0 0 100 100">
  <defs>
    <style>
      .cls-1 {
        fill: #8f1313;
      }
    </style>
  </defs>
  <path class="cls-1" d="M57.14,2.97c.99,1,1.54,8.32,2.35,9.01,3.94,1.02,7.78,2.38,11.21,4.57,2.52-.68,6.86-5.42,9.3-4.69,1.55.46,6.69,7.09,8.6,8.25,1.56,2.65-3.75,6.88-4.49,9.6,2.23,3.37,3.61,7.14,4.65,11.01,1.86,1,8.63,1.17,9.44,2.97.39.86.36,10.61.16,12.02-.05.37-.14.74-.31,1.08l-9.29,2.46c-1.14,3.85-2.62,7.51-4.71,10.95.79,2.36,5.54,6.9,4.83,9.19-.47,1.52-7.21,6.57-8.4,8.44-2.76,1.57-7.24-3.98-10.13-4.42-3.45,1.95-7.18,3.17-10.89,4.55-.94,1.84-1.2,8.51-3,9.3-.73.32-11.1.4-12.26.18-2.96-.54-2.19-8.66-3.99-9.8-.87-.55-4.22-1.31-5.64-1.88-1.09-.43-4.38-2.4-5.11-2.38-1.92.06-6.73,5.52-9.36,4.73-1.55-.46-6.69-7.09-8.6-8.25-1.89-2.37,4.91-8.26,4.5-9.94-2.35-3.29-3.38-7.16-4.85-10.85l-9.1-2.28c-.29-.56-.31-1.17-.36-1.78-.19-2.17-.34-8.84.03-10.76.49-2.57,7.52-2.38,9.63-3.53,1.04-3.87,2.43-7.64,4.65-11.01-.69-2.47-5.52-6.74-4.77-9.13.47-1.52,7.21-6.57,8.4-8.44,2.7-1.54,7.01,3.68,9.78,4.41,3.47-2.31,7.48-3.44,11.4-4.75l2.32-8.94c.95-.61,13.35-.56,14.02.12ZM54.15,6.27h-8.21c-.6.38-1.09,7.6-2.33,8.66-.7.6-5.66,1.66-7.16,2.24-1.69.66-5.58,3.24-6.7,3.46-2.08.41-7.89-5-8.79-4.6l-5.57,5.58c.75,1.87,4.94,6.42,4.82,8.14-.06.8-3,5.45-3.58,6.89-.78,1.94-1.53,6.96-3.21,7.61-1.15.45-7.8,1.26-7.96,1.9l.07,7.86c.38.59,7.69,1.06,8.81,2.29.59.64,2.69,7.73,3.53,9.52.9,1.94,2.91,3.37,2.04,5.58-.48,1.22-4.73,6.54-4.44,7.15l5.68,5.47c.87.06,6.32-4.75,8.31-4.75.94,0,6.35,3.01,8.03,3.64,2.11.78,5.87.94,6.71,3.05.45,1.14,1.29,7.66,1.94,7.81l8.01-.06c.63-.4,1-7.56,2.49-8.86.85-.74,6.57-2.11,8.39-2.89,1.37-.59,3.86-2.38,4.94-2.59,2.61-.5,8.21,5.01,9.16,4.58l5.57-5.58c-.8-1.98-4.88-6.3-4.85-8.17.01-.65,3.05-5.82,3.61-7.23.73-1.83,1.46-6.56,3.21-7.24,1.13-.44,7.8-1.26,7.96-1.9l-.07-7.86c-.38-.59-7.74-1.07-8.82-2.28-.61-.69-1.69-5.56-2.28-7.03-.67-1.66-3.3-5.48-3.52-6.58-.42-2.04,5.09-7.75,4.68-8.63l-5.68-5.47c-1.9.73-6.54,4.85-8.29,4.73-.82-.05-5.55-2.95-7.02-3.52-1.98-.77-7.09-1.5-7.74-3.15-.46-1.14-1.34-7.5-1.74-7.75Z"/>
  <path class="cls-1" d="M59.49,72.24c16.86-7.09,20.57-29.03,6.22-40.78-11.68-9.57-29.62-6.33-37.01,6.66-.62,1.08-2.31,5.63-2.54,5.85-.87.86-3.07.68-3.31-.86-.46-2.91,4.53-10.18,6.65-12.36,14.77-15.21,41.57-9.09,47.63,11.01,7.87,26.12-22.67,46.79-44.64,30.11-3.35-2.54-9.22-9.77-9.62-13.94-.23-2.34,1.95-3.22,3.29-1.91.26.25,2.17,5.3,2.95,6.56,2.64,4.26,6.83,7.71,11.49,9.67v-13.91c-1.35-1.95-6.5-5.46-7.27-7.33-.69-1.67-.84-7.31,2.08-6.53,2.14.57,1,3.45,1.6,4.76.8,1.73,6.28,5.22,7.07,7.15.24.59.25.96.3,1.56.45,4.83-.42,10.28.03,15.17.29.86,2.79.68,3.73.98v-26.33c0-.08-1.02-.1-1.63-.43-6.88-3.76-4.38-13.92,3.34-14.06,8.01-.15,10.7,10.24,3.71,14.06-.61.33-1.63.35-1.63.43v26.33c.93-.3,3.43-.12,3.73-.98.45-4.9-.42-10.35.03-15.17.06-.6.06-.97.3-1.56.8-1.92,6.27-5.42,7.07-7.15.61-1.31-.54-4.19,1.6-4.76,2.93-.78,2.77,4.86,2.08,6.53-.77,1.86-5.92,5.37-7.27,7.33v13.91ZM53.84,40.72c0-2.06-1.7-3.72-3.79-3.72s-3.79,1.67-3.79,3.72,1.7,3.72,3.79,3.72,3.79-1.67,3.79-3.72Z"/>
  <ellipse class="cls-1" cx="23.65" cy="50.02" rx="1.87" ry="1.84"/>
</svg>