<?xml version="1.0" encoding="UTF-8"?>
<svg id="Capa_1" data-name="Capa 1" xmlns="http://www.w3.org/2000/svg" viewBox="0 0 100 100">
  <defs>
    <style>
      .cls-1 {
        fill: #8f1313;
      }
    </style>
  </defs>
  <path class="cls-1" d="M66.42,87.21c-.2.2-.81,2.49-1.16,3.14-5.37,9.88-24.56,10.07-30.21.47-.45-.77-1.27-3.44-1.44-3.61-.21-.21-2.02-.6-2.96-1.38-1.57-1.32-2.23-3.15-1.8-5.14.19-.88,1.44-2.16,1.37-2.63-.19-1.19-1.86-1.68-1.44-4.51s2.97-2.34,2.53-5.89c-.7-5.64-5.09-9.05-8.19-13.2C4.3,29.21,28.44-4.91,59.2,3.38c20.61,5.55,30.48,29.41,19.96,47.71-2.77,4.82-11.65,12.41-10.55,18.32.33,1.79,3.43,2.28,2.57,6.27-.2.93-1.3,1.95-1.37,2.39-.15.96,3.01,2.82.64,6.58-1.33,2.11-3.37,1.94-4.02,2.58ZM65.57,69.23c0-9.53,8.89-14.4,12.33-22.36C88.34,22.61,64.46-2.05,39.29,7.09c-17.29,6.28-24.77,26.62-15.77,42.5,2.12,3.75,5.55,6.43,7.72,9.93,1.7,2.75,3.18,6.45,3.21,9.7h14.04v-16.4h-7.02c-6.58,0-13.5-8.25-14.19-14.39-.14-1.24-.45-7.97.91-7.97h9.11c2.3,0,7.83,3.15,9.5,4.83l3.4,4.49c1.71-3.73,5.1-6.84,9.04-8.27.48-.17,3.29-1.05,3.49-1.05h9.11c1.36,0,1.05,6.73.91,7.97-.69,6.11-7.64,14.39-14.19,14.39h-7.02v16.4h14.04ZM36.92,33.46c-2.03-.27-4.55.2-6.64,0-1.37,9.02,6.04,17.68,15.56,16.21-1.41-1.52-9.05-6.94-9.43-8.28s.94-2.44,2.21-1.78l9.69,8.38c1.23-6.49-4.94-13.68-11.39-14.53ZM69.74,33.46h-6.64c-.21,0-2.38.76-2.84.94-5.4,2.01-9.44,7.86-8.54,13.6l9.69-8.38c1.58-.74,2.94.89,1.9,2.25l-9.13,7.81c9.51,1.47,16.93-7.19,15.56-16.21ZM33.59,72.29c-2.71.61-2.16,4.42.67,4.4,9.94-.85,21.8,1.11,31.51,0,3.38-.39,3.22-4.21,0-4.49l-32.18.09ZM33.59,79.74c-2.71.61-2.16,4.42.67,4.4,9.94-.85,21.8,1.11,31.51,0,3.38-.39,3.22-4.21,0-4.49l-32.18.09ZM63.29,87.12h-26.56c2.49,7.37,9.59,7.98,16.52,7.47,4.63-.34,8.64-3.05,10.04-7.47Z"/>
  <path class="cls-1" d="M2.39,33.46h8.73c1.16,0,1.16,2.98,0,2.98H2.39c-.96,0-1.4-2.53,0-2.98Z"/>
  <path class="cls-1" d="M88.9,33.46h8.73c1.16,0,1.16,2.98,0,2.98h-8.73c-.96,0-1.4-2.53,0-2.98Z"/>
  <path class="cls-1" d="M8.92,10.4c.54-.15.76-.02,1.22.14.54.19,6.39,3.59,6.68,3.88.99,1.02.57,2.51-.79,2.64-.72.07-6.43-3.09-7.2-3.73-1.1-.91-1.46-2.51.08-2.93Z"/>
  <path class="cls-1" d="M90.14,10.42c1.41-.36,2.42.86,1.8,2.16-.34.72-7.1,4.56-7.96,4.49-1.36-.12-1.78-1.62-.79-2.64.28-.29,6.55-3.91,6.95-4.01Z"/>
  <path class="cls-1" d="M15.38,52.89c1.27-.25,2.32.65,1.95,1.92-.19.67-7.34,4.81-8.09,4.75-1.57-.12-1.69-1.73-.61-2.83.32-.33,6.37-3.76,6.75-3.84Z"/>
  <path class="cls-1" d="M83.68,52.89c1.1-.3,8.13,3.73,8.4,4.69s-.33,1.91-1.29,1.99c-.43.03-7.11-3.61-7.59-4.1-.86-.88-.72-2.25.48-2.58Z"/>
</svg>