<?xml version="1.0" encoding="UTF-8"?>
<svg id="Capa_1" data-name="Capa 1" xmlns="http://www.w3.org/2000/svg" viewBox="0 0 100 100">
  <defs>
    <style>
      .cls-1 {
        fill: #fff;
      }
    </style>
  </defs>
  <path class="cls-1" d="M64.39,15.67c.26.41,7.59,3.34,8.39,5.01,4.27-1.95,9.24-7.38,13.44-2.27,1.96,2.39,6.53,10.68,8.04,13.74,1.39,2.82,3.11,5.32.47,8.14-1.16,1.24-7.09,3.83-7.32,4.19-.29.45-.28,9.84,0,10.69.84,2.52,10.32,3.1,8.46,9.9-.44,1.6-7.91,14.34-9.28,16.22-5.29,7.31-9.33-1.3-13.27-1.43-1.25-.04-5.24,3.06-6.74,3.84-.65.34-2.07.39-2.22.56-.8.9,1.44,10.61-2.71,12.54-3.92,1.82-17.9-.2-22.9.18-4.76-1.55-2.28-11.75-3.14-12.72-.15-.16-1.56-.21-2.22-.56-1.49-.79-5.48-3.88-6.74-3.84-3.94.13-7.98,8.74-13.27,1.43-1.63-2.25-8.33-13.56-9.08-15.79-2.46-7.31,7.38-7.66,8.26-10.33.78-2.35-.4-7.18.14-9.88-.18-1.48-6.38-3.54-7.79-5.3-1.08-1.35-1.16-2.84-.84-4.48.28-1.4,9.92-17.87,10.82-18.43,4.32-2.7,8.54,2,12.28,3.6.79-1.67,8.13-4.6,8.39-5.01,1.28-2.05-2.11-10.89,3.8-12.69,2.5-.76,15.84-.6,19.03-.31,9.21.85,4.22,10.17,5.98,12.99ZM63.94,50.09c0-7.71-6.25-13.96-13.96-13.96s-13.96,6.25-13.96,13.96,6.25,13.96,13.96,13.96,13.96-6.25,13.96-13.96Z"/>
</svg>