<?xml version="1.0" encoding="UTF-8"?>
<svg id="Capa_1" data-name="Capa 1" xmlns="http://www.w3.org/2000/svg" viewBox="0 0 100 100">
  <defs>
    <style>
      .cls-1 {
        fill: #fff;
      }
    </style>
  </defs>
  <path class="cls-1" d="M98.21,72.18l-2.28,2.27-2.69-2.69H6.65l-2.83,2.83-2.03-2.03,2.37-2.38-1.37-1.37,5.51-5.51c3.76,5.02,9.84,8.2,16.64,7.96,10.6-.38,19.13-9.21,19.16-19.82s-8.89-19.94-19.88-19.94c-7.55,0-14.11,4.21-17.48,10.4-1.92-1.8-4.06-3.9-3.87-4.09.35-.34,0-6.75,0-6.75h95.12v6.75l-3.27,3.27c-3.59-5.91-10.16-9.8-17.63-9.58-10.37.31-18.86,8.73-19.25,19.09-.44,11.34,8.63,20.67,19.87,20.67,5.97,0,11.32-2.63,14.96-6.79l3.69,3.69v2.15l1.85,1.85Z"/>
  <g>
    <path class="cls-1" d="M23.55,34.4v15.67c0,.18-.14.32-.32.32H7.56c-.19,0-.33-.16-.32-.34.65-8.52,7.45-15.31,15.97-15.97.18-.01.34.14.34.32Z"/>
    <path class="cls-1" d="M41.55,50.39h-15.67c-.18,0-.32-.14-.32-.32v-15.67c0-.19.16-.33.34-.32,8.52.65,15.31,7.45,15.97,15.97.01.18-.14.34-.32.34Z"/>
    <path class="cls-1" d="M7.56,52.41h15.67c.18,0,.32.14.32.32v15.67c0,.19-.16.33-.34.32-8.52-.65-15.32-7.45-15.97-15.97-.01-.18.14-.34.32-.34Z"/>
    <path class="cls-1" d="M41.88,52.75c-.65,8.52-7.45,15.32-15.97,15.97-.18.01-.34-.14-.34-.32v-15.67c0-.18.14-.32.32-.32h15.67c.19,0,.33.16.32.34Z"/>
  </g>
  <g>
    <path class="cls-1" d="M76.89,34.4v15.67c0,.18-.14.32-.32.32h-15.67c-.19,0-.33-.16-.32-.34.65-8.52,7.45-15.31,15.97-15.97.18-.01.34.14.34.32Z"/>
    <path class="cls-1" d="M94.89,50.39h-15.67c-.18,0-.32-.14-.32-.32v-15.67c0-.19.16-.33.34-.32,8.52.65,15.31,7.45,15.97,15.97.01.18-.14.34-.32.34Z"/>
    <path class="cls-1" d="M60.9,52.41h15.67c.18,0,.32.14.32.32v15.67c0,.19-.16.33-.34.32-8.52-.65-15.32-7.45-15.97-15.97-.01-.18.14-.34.32-.34Z"/>
    <path class="cls-1" d="M95.21,52.75c-.65,8.52-7.45,15.32-15.97,15.97-.18.01-.34-.14-.34-.32v-15.67c0-.18.14-.32.32-.32h15.67c.19,0,.33.16.32.34Z"/>
  </g>
</svg>