<?xml version="1.0" encoding="UTF-8"?>
<svg id="Capa_1" data-name="Capa 1" xmlns="http://www.w3.org/2000/svg" viewBox="0 0 100 100">
  <defs>
    <style>
      .cls-1 {
        fill: #fff;
      }
    </style>
  </defs>
  <path class="cls-1" d="M42.42,43.42H3.44c-.61,0-1.1-.55-1-1.16C5.73,21.85,21.85,5.73,42.26,2.44c.61-.1,1.16.38,1.16,1v38.98c0,.55-.45,1-1,1Z"/>
  <path class="cls-1" d="M3.44,56.58h38.98c.55,0,1,.45,1,1v38.98c0,.61-.55,1.09-1.16,1-20.41-3.29-36.52-19.4-39.82-39.82-.1-.61.38-1.16,1-1.16Z"/>
  <path class="cls-1" d="M97.56,57.74c-3.3,20.42-19.41,36.52-39.82,39.82-.61.1-1.16-.38-1.16-1v-38.98c0-.55.45-1,1-1h38.98c.61,0,1.1.55,1,1.16Z"/>
  <path class="cls-1" d="M96.56,43.42h-38.98c-.55,0-1-.45-1-1V3.44c0-.61.55-1.1,1.16-1,20.41,3.3,36.53,19.41,39.82,39.82.1.61-.38,1.16-1,1.16Z"/>
</svg>