<?xml version="1.0" encoding="UTF-8"?>
<svg id="Capa_1" data-name="Capa 1" xmlns="http://www.w3.org/2000/svg" viewBox="0 0 100 100">
  <defs>
    <style>
      .cls-1 {
        fill: #fff;
      }
    </style>
  </defs>
  <path class="cls-1" d="M95.86,11.86c5.64,6.86,5.47,17.58-.23,24.34l-33.3,33.29c1.37,28.93-36.16,42.18-52.65,17.76-13.3-19.69,2.27-45.93,25.69-44.71L68.67,9.23c6.76-5.69,17.48-5.87,24.34-.23.81.67,2.19,2.04,2.85,2.85ZM86.43,16.14c-3.84-2.92-9.62-1.89-12.84,1.49l-34.56,34.57c-.62.42-5.51-.1-6.82,0-13.61,1.11-22.09,15.82-15.62,27.91,9.14,17.08,34.51,11.73,36.08-7.45.11-1.3-.42-6.2,0-6.82l34.73-34.72c4.3-4.48,4.1-11.13-.96-14.98Z"/>
  <path class="cls-1" d="M70.65,40.87l-24.26,24.26c2.15,3.87,1.94,9.06-.15,12.92-5.85,10.82-21.58,9.91-26.08-1.59-4.73-12.07,8.08-23.8,19.57-17.99l24.26-24.26,6.66,6.66Z"/>
</svg>