<?xml version="1.0" encoding="UTF-8"?>
<svg id="Capa_1" data-name="Capa 1" xmlns="http://www.w3.org/2000/svg" viewBox="0 0 100 100">
  <defs>
    <style>
      .cls-1 {
        fill: #fff;
      }
    </style>
  </defs>
  <path class="cls-1" d="M44.39,91.64c5.4-5.29,6.02-14.18,1.63-20.29-1.35-1.87-2.74-2.04-3.06-4.75-.4-3.52-.52-15.79.02-19.1.5-3.08,3.89-3,4.28.36.64,5.52-.97,13.63,0,18.74.13.68,3.01,3.87,3.69,5.29,8.41,17.33-10.69,35.18-27.63,25.29-11.04-6.45-12.41-21.5-3.79-30.57.89-16.97-1.15-35.09,0-51.92,1.33-19.59,26.3-19.4,27.73-.37.25,3.33.48,11.75-.02,14.81-.42,2.59-3.09,3.1-4.09.63-.86-5.72.56-12.55-.21-18.14-1.38-10.02-18.14-10.15-19.11.73-1.54,17.25,1.18,36.78.02,54.27-.9,3.51-3.77,4.79-5.08,8.58-5.43,15.72,13.94,27.93,25.63,16.46Z"/>
  <path class="cls-1" d="M39.53,70.62c.24.42,3,2.3,3.89,3.71,4.14,6.56.32,15.79-7.24,17.5-13.1,2.97-20.12-14.31-8.83-21.41l.04-54.13c.68-8.89,11.71-8.53,12.05.35l.09,53.97ZM35.16,23.86v-9.17c0-1.24-3.51-1.24-3.51,0v9.17h3.51ZM35.16,28.15h-3.51v8.2h3.51v-8.2ZM35.16,40.25h-3.51v8.2h3.51v-8.2ZM35.16,52.74h-3.51v8.2h3.51v-8.2ZM35.16,64.84h-3.51v6.44c0,1.63-2.18,2.28-3.13,3.11-7.75,6.83,1.65,18.24,9.57,12.3,4.11-3.08,3.98-8.98.21-12.3-.95-.84-3.13-1.48-3.13-3.11v-6.44Z"/>
  <path class="cls-1" d="M73.7,16.94c4.4-.63,9.03,1.52,11.09,5.49.85,1.64,2.34,6.55-.29,6.91s-2.26-2.64-2.77-4.24c-1.92-5.94-11.48-5.58-12.84.3-.67,2.89-.55,17.57-.17,20.91.78,6.85,10.98,7.59,13.01,1.3.51-1.58.16-5.03,3.11-4.16,2.8.83.12,7.07-1.29,8.71-5.17,5.98-15.71,4.39-18.25-3.2-1.36-4.07-1.38-20.45-.21-24.63,1.03-3.68,4.87-6.85,8.62-7.38Z"/>
  <path class="cls-1" d="M57.7,13.02c8.14-1.28,9.16,10.82,1.81,11.59-7.71.81-8.71-10.5-1.81-11.59ZM58.07,16.9c-1.5.44-1.5,3.33,0,3.77,3.36.99,3.36-4.76,0-3.77Z"/>
  <path class="cls-1" d="M44.41,36.42c3.36-.99,3.36,4.76,0,3.77-1.5-.44-1.5-3.33,0-3.77Z"/>
</svg>