<?xml version="1.0" encoding="UTF-8"?>
<svg id="Capa_1" data-name="Capa 1" xmlns="http://www.w3.org/2000/svg" viewBox="0 0 100 100">
  <defs>
    <style>
      .cls-1 {
        fill: #fff;
      }
    </style>
  </defs>
  <path class="cls-1" d="M87.19,23.1v-2.9c0-4.07-3.3-7.37-7.37-7.37h-2.9s-.05-.02-.05-.05v-5.46c0-1.36-.55-2.58-1.44-3.45-.94-.96-2.27-1.51-3.75-1.43-2.63.16-4.58,2.52-4.58,5.15v5.18s-.02.05-.05.05h-4.79s-.05-.02-.05-.05v-5.46c0-1.36-.55-2.58-1.44-3.45-1.24-1.26-3.2-1.83-5.17-1.14-1.97.69-3.17,2.7-3.17,4.79v5.26s-.02.05-.05.05h-4.79s-.05-.02-.05-.05v-5.46c0-1.36-.55-2.58-1.44-3.45-.94-.96-2.27-1.51-3.75-1.43-2.63.16-4.58,2.52-4.58,5.15v5.18s-.02.05-.05.05h-4.79s-.05-.02-.05-.05v-5.46c0-1.36-.55-2.58-1.44-3.45-1.24-1.26-3.2-1.83-5.17-1.14-1.97.7-3.16,2.7-3.16,4.79v5.26s-.02.05-.05.05h-2.9c-4.07,0-7.37,3.3-7.37,7.37v2.9s-.02.05-.05.05h-5.13c-2.67,0-5.08,2-5.2,4.67-.12,2.8,2.11,5.1,4.88,5.1h5.45s.05.02.05.05v4.79s-.02.05-.05.05h-5.13c-2.67,0-5.08,2-5.2,4.67-.12,2.8,2.11,5.1,4.88,5.1h5.45s.05.02.05.05v4.79s-.02.05-.05.05h-5.13c-2.67,0-5.08,2-5.2,4.67-.12,2.8,2.11,5.1,4.88,5.1h5.45s.05.02.05.05v4.79s-.02.05-.05.05h-5.13c-2.67,0-5.08,2-5.2,4.67-.12,2.8,2.11,5.1,4.88,5.1h5.45s.05.02.05.05v2.9c0,4.07,3.3,7.37,7.37,7.37h2.9s.05.02.05.05v5.11c0,2.67,2,5.08,4.67,5.2,2.8.12,5.1-2.11,5.1-4.88v-5.43s.02-.05.05-.05h4.79s.05.02.05.05v5.11c0,2.67,2,5.08,4.67,5.2,2.8.12,5.1-2.11,5.1-4.88v-5.43s.02-.05.05-.05h4.79s.05.02.05.05v5.11c0,2.67,2,5.08,4.67,5.2,2.8.12,5.1-2.11,5.1-4.88v-5.43s.02-.05.05-.05h4.79s.05.02.05.05v5.11c0,2.67,2,5.08,4.67,5.2,2.8.12,5.1-2.11,5.1-4.88v-5.43s.02-.05.05-.05h2.9c4.07,0,7.37-3.3,7.37-7.37v-2.9s.02-.05.05-.05h5.45c1.36,0,2.58-.55,3.45-1.44.96-.94,1.52-2.28,1.43-3.76-.16-2.63-2.53-4.58-5.16-4.58h-5.17s-.05-.02-.05-.05v-4.79s.02-.05.05-.05h5.45c1.36,0,2.58-.55,3.45-1.44,1.26-1.24,1.83-3.2,1.13-5.17-.7-1.97-2.7-3.16-4.79-3.16h-5.24s-.05-.02-.05-.05v-4.79s.02-.05.05-.05h5.45c1.36,0,2.58-.55,3.45-1.44.95-.94,1.51-2.27,1.43-3.75-.15-2.63-2.52-4.58-5.15-4.58h-5.17s-.05-.02-.05-.05v-4.79s.02-.05.05-.05h5.45c1.36,0,2.58-.55,3.45-1.44,1.26-1.24,1.83-3.19,1.14-5.17-.69-1.97-2.7-3.17-4.79-3.17h-5.25s-.05-.02-.05-.05ZM76.87,68.29c0,4.75-3.85,8.6-8.6,8.6h-35.47c-5.34,0-9.67-4.33-9.67-9.67V30.49c0-4.06,3.29-7.35,7.35-7.35h38.74c4.23,0,7.65,3.43,7.65,7.65v37.49Z"/>
  <path class="cls-1" d="M36.66,29.35h26.68c4.04,0,7.32,3.28,7.32,7.32v26.68c0,4.04-3.28,7.32-7.32,7.32h-26.68c-4.04,0-7.32-3.28-7.32-7.32v-26.68c0-4.04,3.28-7.32,7.32-7.32Z"/>
</svg>