<?xml version="1.0" encoding="UTF-8"?>
<svg id="Capa_1" xmlns="http://www.w3.org/2000/svg" version="1.1" viewBox="0 0 100 100">
  <!-- Generator: Adobe Illustrator 29.6.1, SVG Export Plug-In . SVG Version: 2.1.1 Build 9)  -->
  <defs>
    <style>
      .st0 {
        fill: #fff;
      }
    </style>
  </defs>
  <path class="st0" d="M65.95,27.47h-32.35c-3.39,0-6.14,2.75-6.14,6.14v30.67c0,4.46,3.62,8.08,8.08,8.08h29.63c3.97,0,7.18-3.22,7.18-7.18v-31.31c0-3.53-2.86-6.39-6.39-6.39ZM67.16,61.06c0,3.38-2.74,6.12-6.11,6.12h-22.28c-3.38,0-6.11-2.74-6.11-6.12v-22.28c0-3.38,2.74-6.12,6.11-6.12h22.28c3.38,0,6.11,2.74,6.11,6.12v22.28Z"/>
  <path class="st0" d="M49.9,2.34C23.63,2.34,2.34,23.63,2.34,49.9s21.3,47.57,47.57,47.57,47.57-21.3,47.57-47.57S76.18,2.34,49.9,2.34ZM81.01,64.2h4.31c2.2,0,4.17,1.63,4.31,3.82.07,1.24-.39,2.35-1.19,3.14-.73.74-1.75,1.2-2.88,1.2h-4.55s-.04.02-.04.04v2.42c0,3.4-2.76,6.16-6.15,6.16h-2.42s-.04.02-.04.04v4.54c0,2.31-1.92,4.18-4.26,4.08-2.23-.1-3.9-2.11-3.9-4.34v-4.27s-.02-.04-.04-.04h-4s-.04.02-.04.04v4.54c0,2.31-1.92,4.18-4.26,4.08-2.23-.1-3.9-2.11-3.9-4.34v-4.27s-.02-.04-.04-.04h-4s-.04.02-.04.04v4.54c0,2.31-1.92,4.18-4.26,4.08-2.23-.1-3.9-2.11-3.9-4.34v-4.27s-.02-.04-.04-.04h-4s-.04.02-.04.04v4.54c0,2.31-1.92,4.18-4.26,4.08-2.23-.1-3.9-2.11-3.9-4.34v-4.27s-.02-.04-.04-.04h-2.42c-3.4,0-6.16-2.76-6.16-6.16v-2.42s-.02-.04-.04-.04h-4.55c-2.31,0-4.18-1.92-4.08-4.26.1-2.23,2.11-3.9,4.34-3.9h4.28s.04-.02.04-.04v-4s-.02-.04-.04-.04h-4.55c-2.31,0-4.18-1.92-4.08-4.26.1-2.23,2.11-3.9,4.34-3.9h4.28s.04-.02.04-.04v-4s-.02-.04-.04-.04h-4.55c-2.31,0-4.18-1.92-4.08-4.26.1-2.23,2.11-3.9,4.34-3.9h4.28s.04-.02.04-.04v-4s-.02-.04-.04-.04h-4.55c-2.31,0-4.18-1.92-4.08-4.26.1-2.23,2.11-3.9,4.34-3.9h4.28s.04-.02.04-.04v-2.42c0-3.4,2.76-6.15,6.16-6.15h2.42s.04-.02.04-.04v-4.39c0-1.74,1-3.42,2.64-4,1.65-.58,3.28-.11,4.32.95.74.73,1.2,1.75,1.2,2.88v4.56s.02.04.04.04h4s.04-.02.04-.04v-4.33c0-2.2,1.63-4.17,3.83-4.3,1.24-.07,2.35.39,3.13,1.19.74.73,1.2,1.75,1.2,2.88v4.56s.02.04.04.04h4s.04-.02.04-.04v-4.39c0-1.74,1-3.42,2.64-4,1.65-.58,3.28-.1,4.32.95.74.73,1.2,1.75,1.2,2.88v4.56s.02.04.04.04h4s.04-.02.04-.04v-4.33c0-2.2,1.63-4.17,3.83-4.3,1.24-.07,2.35.39,3.13,1.19.74.73,1.2,1.75,1.2,2.88v4.56s.02.04.04.04h2.42c3.4,0,6.15,2.76,6.15,6.15v2.42s.02.04.04.04h4.38c1.74,0,3.42,1,4,2.65.58,1.65.1,3.28-.95,4.31-.73.74-1.75,1.2-2.88,1.2h-4.55s-.04.02-.04.04v4s.02.04.04.04h4.32c2.2,0,4.18,1.63,4.3,3.83.07,1.23-.39,2.35-1.19,3.13-.73.74-1.75,1.2-2.88,1.2h-4.55s-.04.02-.04.04v4s.02.04.04.04h4.38c1.74,0,3.42,1,4,2.64.58,1.65.11,3.28-.95,4.32-.73.74-1.75,1.2-2.88,1.2h-4.55s-.04.02-.04.04v4s.02.04.04.04Z"/>
</svg>