<?xml version="1.0" encoding="UTF-8"?>
<svg id="Capa_1" data-name="Capa 1" xmlns="http://www.w3.org/2000/svg" viewBox="0 0 100 100">
  <defs>
    <style>
      .cls-1 {
        fill: #fff;
      }
    </style>
  </defs>
  <g>
    <path class="cls-1" d="M34.86,26.18h4.33v-5c0-1.88,4.33-1.88,4.33,0v5h4.33v-5c0-1.88,4.33-1.88,4.33,0v5h4.33v-5c0-1.88,4.33-1.88,4.33,0v5h4.33v-5c0-1.48,3.88-2.49,4.31.29.14.87-.15,5,.05,5.23.05.05.89.16,1.31.44.38.26,1.49,1.36,1.77,1.74.44.59.63,1.54.7,1.6.23.2,4.35-.09,5.23.05,2.78.43,1.77,4.31.29,4.31h-5v4.33h5c1.88,0,1.88,4.33,0,4.33h-5v4.33h5c1.88,0,1.88,4.33,0,4.33h-5v4.33h5c1.88,0,1.88,4.33,0,4.33h-5v4.33h5c1.48,0,2.49,3.88-.29,4.31-.88.14-4.97-.16-5.22.06-.08.07-.11.64-.29.91-.93,1.34-1.98,2.44-3.55,3-.15,2.23,1.1,7.65-2.76,6.81-.5-.11-1.55-.99-1.55-1.43v-5h-4.33v5c0,1.88-4.33,1.88-4.33,0v-5h-4.33v5c0,1.88-4.33,1.88-4.33,0v-5h-4.33v5c0,1.88-4.33,1.88-4.33,0v-5h-4.33v5c0,.44-1.04,1.32-1.55,1.43-3.86.84-2.61-4.57-2.76-6.81-1.56-.56-2.62-1.66-3.55-3-.19-.27-.21-.84-.29-.91-.25-.22-4.33.08-5.22-.06-2.78-.43-1.77-4.31-.29-4.31h5v-4.33h-5c-1.88,0-1.88-4.33,0-4.33h5v-4.33h-5c-1.88,0-1.88-4.33,0-4.33h5v-4.33h-5c-1.88,0-1.88-4.33,0-4.33h5v-4.33h-5c-1.48,0-2.49-3.88.29-4.31.87-.14,5,.15,5.23-.05.07-.06.26-1.01.7-1.6.28-.38,1.39-1.48,1.77-1.74.42-.29,1.27-.39,1.31-.44.2-.23-.09-4.36.05-5.23.43-2.78,4.31-1.77,4.31-.29v5ZM32.08,30.57c-.9.25-1.53,1.03-1.55,1.96.77,11.14-1.01,23.64,0,34.62.15,1.61.69,2.15,2.3,2.3,10.9.99,23.3-.78,34.36,0,1.36.06,2.36-.93,2.3-2.3-.78-11.06.99-23.46,0-34.36-.1-1.05-.31-1.73-1.35-2.16l-36.05-.06Z"/>
    <path class="cls-1" d="M40.2,34.9c5.73-.91,13.43.52,19.38-.04,2.81.5,5.26,2.91,5.57,5.79.45,4.15.45,14.5,0,18.66-.31,2.9-2.92,5.5-5.81,5.81-4.15.45-14.5.45-18.66,0-2.9-.31-5.5-2.92-5.81-5.81.54-5.92-.73-13.14.02-18.9.33-2.51,2.8-5.1,5.31-5.5Z"/>
  </g>
  <path class="cls-1" d="M50,6.59c23.94,0,43.41,19.48,43.41,43.41s-19.48,43.41-43.41,43.41S6.59,73.94,6.59,50,26.06,6.59,50,6.59M50,1.59C23.26,1.59,1.59,23.26,1.59,50s21.68,48.41,48.41,48.41,48.41-21.68,48.41-48.41S76.74,1.59,50,1.59h0Z"/>
</svg>